<svg width="24" height="24" viewBox="0 0 24 24" fill="none" xmlns="http://www.w3.org/2000/svg">
    <path fill-rule="evenodd" clip-rule="evenodd" d="M16.4283 14.397C17.2771 13.2387 17.7783 11.8097 17.7783 10.2637C17.7783 6.39768 14.6443 3.26367 10.7783 3.26367C6.91233 3.26367 3.77832 6.39768 3.77832 10.2637C3.77832 14.1297 6.91233 17.2637 10.7783 17.2637C12.3244 17.2637 13.7534 16.7625 14.9116 15.9137L18.7059 19.7079L19.4642 18.9496L20.2225 18.1912L16.4283 14.397ZM10.7783 15.2637C8.0169 15.2637 5.77832 13.0251 5.77832 10.2637C5.77832 7.50225 8.0169 5.26367 10.7783 5.26367C13.5397 5.26367 15.7783 7.50225 15.7783 10.2637C15.7783 13.0251 13.5397 15.2637 10.7783 15.2637Z" fill="#333842" fill-opacity="0.5"/>
</svg>
